# xmcd
#
# Track frame offsets: 
#        300
#        18094
#        33383
#        54976
#        72764
#        88255
#        102418
#        124049
#        143070
#        157564
#        175663
#        191908
#        210367
#
# Disc length: 3092 seconds
#
# Revision: 2
# Processed by: cddbd v1.5.2PL0 Copyright (c) Steve Scherf et al.
# Submitted via: ExactAudioCopy v0.99pb4
#
DISCID=a30c100d
DTITLE=Михаил Шуфутинский - Наколочка
DYEAR=2002
DGENRE=Шансон
TTITLE0=Наколочка
TTITLE1=У Вокзала
TTITLE2=Я Поеду На Юг
TTITLE3=Аленка
TTITLE4=Дорогая, Прочтите Листок
TTITLE5=Новый Год
TTITLE6=Поезда
TTITLE7=Гитарушка
TTITLE8=Деловые
TTITLE9=Крым
TTITLE10=Курочка
TTITLE11=Костровая
TTITLE12=Цветет Багульник
EXTD=All right reserved.\nwww.odyssey.od.ua
EXTT0=
EXTT1=
EXTT2=
EXTT3=
EXTT4=
EXTT5=
EXTT6=
EXTT7=
EXTT8=
EXTT9=
EXTT10=
EXTT11=
EXTT12=
PLAYORDER=
